<?xml version="1.0" encoding="utf-8"?>
<!-- Generator: Adobe Illustrator 27.0.0, SVG Export Plug-In . SVG Version: 6.00 Build 0)  -->
<svg version="1.1" id="Layer_1" xmlns="http://www.w3.org/2000/svg" xmlns:xlink="http://www.w3.org/1999/xlink" x="0px" y="0px"
	 viewBox="0 0 826.8 430" style="enable-background:new 0 0 826.8 430;" xml:space="preserve">
<style type="text/css">
	.st0{fill:#303030;}
	.st1{fill:url(#SVGID_1_);}
	.st2{fill:#FFFFFF;}
	.st3{opacity:8.000000e-02;fill:#FFFFFF;}
	.st4{opacity:0.1;fill:#FFFFFF;}
	.st5{opacity:5.000000e-02;fill:#FFFFFF;}
	.st6{opacity:0.3;fill:url(#SVGID_00000005971595923360300090000007981038628804987792_);}
	.st7{opacity:0.3;fill:url(#SVGID_00000105415523924834841420000011480480414982109108_);}
</style>
<rect x="0.5" class="st0" width="740.1" height="446.5"/>
<linearGradient id="SVGID_1_" gradientUnits="userSpaceOnUse" x1="10.2067" y1="352.6457" x2="756.4703" y2="599.3588">
	<stop  offset="0" style="stop-color:#1C2824"/>
	<stop  offset="0.5473" style="stop-color:#0C3933"/>
	<stop  offset="0.6378" style="stop-color:#0D3D36"/>
	<stop  offset="0.7768" style="stop-color:#10493F"/>
	<stop  offset="0.946" style="stop-color:#0E5C4F"/>
	<stop  offset="1" style="stop-color:#0B6354"/>
</linearGradient>
<rect x="-2" class="st1" width="830.9" height="971.9"/>
<path class="st2" d="M-2,388.1c99.4-19.6,209.6-24.1,309.3-6.1c72.6,13.1,145.3,24.3,218.9,32c54.7,5.7,110.1,2.6,164.5-3.3
	c10.8-1.2,138.1-15.5,138.1-17.8c0,0,0,517.6,0,517.6L-2,906L-2,388.1z"/>
<path class="st3" d="M0.7,368.4c99.1-21.8,161.4-30.9,260.9-10.9c72.4,14.6,192.4,50.5,265.8,59c54.5,6.3,109.7,2.9,164-3.7
	c10.8-1.3,137.7-17.2,137.7-19.8c0,0,0,575.8,0,575.8l-828.4-5V368.4z"/>
<path class="st4" d="M826.4,380.1c-99.1-21.3-161.4-30.3-260.9-10.7c-72.4,14.3-192.4,49.5-265.8,57.9c-54.5,6.2-109.7,2.8-164-3.6
	C124.9,422.3-2,406.7-2,404.3c0,0,0,564.6,0,564.6l828.4-4.9V380.1z"/>
<path class="st5" d="M827,373.6c-99.2-20.8-161.7-8.6-261.3,10.6c-72.5,14-192.7,48.4-266.2,56.5c-54.6,6-62.4-31.7-161.1-66.4
	c-10.2-3.6-141-2.2-141-4.6c0,0,0,599.7,0,599.7l829.6-4.8V373.6z"/>
<path class="st4" d="M267.5,309.7h57.1c0,0,18.5,0.6,19.3,30.8s1.4,46.4-27.1,41.8c-28.5-4.6-47.8-9.8-62.1-38.3
	C240.4,315.5,267.5,309.7,267.5,309.7z"/>
<path class="st4" d="M733.6,336.8h32.1c0,0,10.4,0.3,10.8,18.2c0.4,17.9,0.8,27.5-15.2,24.7c-16-2.7-26.8-5.8-34.9-22.7
	C718.4,340.2,733.6,336.8,733.6,336.8z"/>
<path class="st4" d="M729,158.6h30.7c0,0,10,0.3,10.4,17.9s0.8,26.9-14.6,24.3c-15.4-2.7-25.7-5.7-33.4-22.3
	C714.4,162,729,158.6,729,158.6z"/>
<path class="st4" d="M768.5,144.4h16c0,0,5.2,0.2,5.4,11.9c0.2,11.7,0.4,17.9-7.6,16.2c-8-1.8-13.4-3.8-17.4-14.8
	S768.5,144.4,768.5,144.4z"/>
<path class="st4" d="M8.6,170.7h27.2c0,0,8.8,0.3,9.2,15.5s0.7,23.3-12.9,21c-13.6-2.3-22.8-4.9-29.6-19.3
	C-4.4,173.6,8.6,170.7,8.6,170.7z"/>
<linearGradient id="SVGID_00000032628804713593335160000009726072707083248023_" gradientUnits="userSpaceOnUse" x1="7.9316" y1="65.1677" x2="127.5905" y2="160.6384">
	<stop  offset="0" style="stop-color:#B2AC75"/>
	<stop  offset="0.4561" style="stop-color:#C8BB87"/>
	<stop  offset="0.6002" style="stop-color:#C5B986"/>
	<stop  offset="0.6739" style="stop-color:#BBB382"/>
	<stop  offset="0.7316" style="stop-color:#ACAA7E"/>
	<stop  offset="0.7811" style="stop-color:#999E78"/>
	<stop  offset="0.8252" style="stop-color:#809170"/>
	<stop  offset="0.8656" style="stop-color:#648167"/>
	<stop  offset="0.9023" style="stop-color:#41715E"/>
	<stop  offset="0.9325" style="stop-color:#0B6354"/>
</linearGradient>
<polygon style="opacity:0.3;fill:url(#SVGID_00000032628804713593335160000009726072707083248023_);" points="-2,62.3 127.5,165.7 
	-2,52.1 "/>
<linearGradient id="SVGID_00000121271800823733896270000005336389391124365974_" gradientUnits="userSpaceOnUse" x1="-656.9364" y1="37.4687" x2="-537.2775" y2="132.9395" gradientTransform="matrix(-0.9941 -0.1084 -0.1084 0.9941 170.1177 -41.3787)">
	<stop  offset="0" style="stop-color:#B2AC75"/>
	<stop  offset="0.4561" style="stop-color:#C8BB87"/>
	<stop  offset="0.6002" style="stop-color:#C5B986"/>
	<stop  offset="0.6739" style="stop-color:#BBB382"/>
	<stop  offset="0.7316" style="stop-color:#ACAA7E"/>
	<stop  offset="0.7811" style="stop-color:#999E78"/>
	<stop  offset="0.8252" style="stop-color:#809170"/>
	<stop  offset="0.8656" style="stop-color:#648167"/>
	<stop  offset="0.9023" style="stop-color:#41715E"/>
	<stop  offset="0.9325" style="stop-color:#0B6354"/>
</linearGradient>
<polygon style="opacity:0.3;fill:url(#SVGID_00000121271800823733896270000005336389391124365974_);" points="829.3,65.3 
	689.4,154.1 830.4,55.1 "/>
<path class="st4" d="M37.3,16.7l18.1,16.5c0,0,5.6,5.6-8.1,15.9s-21,15.9-27.9,6.1s-10.6-17.1-2-30.8S37.3,16.7,37.3,16.7z"/>
<path class="st4" d="M695.9,48.9h16c0,0,5.2,0.2,5.4,11.9c0.2,11.7,0.4,17.9-7.6,16.2s-13.4-3.8-17.4-14.8S695.9,48.9,695.9,48.9z"
	/>
</svg>
